<svg width="18" height="17" viewBox="0 0 18 17" fill="none" xmlns="http://www.w3.org/2000/svg">
<path d="M0.408207 11.5093C-0.749686 13.5093 0.693492 16.0124 3.00449 16.0124H14.5978C16.9088 16.0124 18.352 13.5093 17.1941 11.5093L11.3974 1.49688C10.2419 -0.498974 7.36036 -0.498968 6.20487 1.49689L0.408207 11.5093ZM9.80115 12.0124C9.80115 12.5647 9.35343 13.0124 8.80115 13.0124C8.24886 13.0124 7.80115 12.5647 7.80115 12.0124C7.80115 11.4601 8.24886 11.0124 8.80115 11.0124C9.35343 11.0124 9.80115 11.4601 9.80115 12.0124ZM9.80115 8.01241C9.80115 8.56469 9.35343 9.01241 8.80115 9.01241C8.24886 9.01241 7.80115 8.56469 7.80115 8.01241V6.01241C7.80115 5.46012 8.24886 5.01241 8.80115 5.01241C9.35343 5.01241 9.80115 5.46012 9.80115 6.01241V8.01241Z" fill="black"/>
</svg>
